<?xml version="1.0" encoding="UTF-8"?>
<svg xmlns="http://www.w3.org/2000/svg" xmlns:xlink="http://www.w3.org/1999/xlink" width="146pt" height="20pt" viewBox="0 0 146 20" version="1.1">
<g id="surface1">
<path style=" stroke:none;fill-rule:nonzero;fill:rgb(100%,100%,100%);fill-opacity:1;" d="M 2.652344 1.378906 C 2.472656 1.863281 2.625 3.46875 2.878906 3.367188 C 2.980469 3.34375 6.449219 3.316406 10.601562 3.316406 L 18.121094 3.316406 L 18.046875 2.21875 L 17.96875 1.148438 L 10.375 1.070312 C 4.027344 1.019531 2.777344 1.070312 2.652344 1.378906 Z M 2.652344 1.378906 "/>
<path style=" stroke:none;fill-rule:nonzero;fill:rgb(100%,100%,100%);fill-opacity:1;" d="M 72.898438 3.953125 C 71.445312 4.414062 69.789062 5.816406 68.871094 7.347656 C 68.285156 8.394531 68.183594 8.800781 68.183594 10.585938 C 68.207031 12.167969 68.335938 12.855469 68.742188 13.648438 C 71.011719 17.90625 76.3125 18.902344 79.855469 15.738281 L 80.570312 15.101562 L 78.632812 13.570312 L 77.816406 14.285156 C 76.925781 15.101562 75.242188 15.460938 73.917969 15.179688 C 72.71875 14.921875 70.960938 13.113281 70.605469 11.785156 C 69.96875 9.3125 71.445312 6.785156 73.941406 6.121094 C 75.21875 5.765625 76.492188 6.019531 77.664062 6.8125 L 78.582031 7.449219 L 79.371094 6.632812 L 80.164062 5.84375 L 79.269531 5.078125 C 77.640625 3.699219 75.167969 3.265625 72.898438 3.953125 Z M 72.898438 3.953125 "/>
<path style=" stroke:none;fill-rule:nonzero;fill:rgb(100%,100%,100%);fill-opacity:1;" d="M 99.789062 3.800781 C 93.644531 5.40625 92.574219 13.546875 98.105469 16.785156 C 99.125 17.398438 99.535156 17.472656 101.445312 17.472656 C 103.332031 17.472656 103.765625 17.398438 104.757812 16.785156 C 107.15625 15.382812 108.378906 13.265625 108.378906 10.613281 C 108.351562 7.933594 106.773438 5.355469 104.453125 4.261719 C 103.382812 3.75 100.886719 3.496094 99.789062 3.800781 Z M 103.738281 6.632812 C 105.804688 7.730469 106.671875 10.816406 105.472656 12.882812 C 103.585938 16.121094 99.101562 16.046875 97.445312 12.753906 C 96.449219 10.816406 96.78125 8.777344 98.335938 7.320312 C 99.863281 5.867188 101.777344 5.613281 103.738281 6.632812 Z M 103.738281 6.632812 "/>
<path style=" stroke:none;fill-rule:nonzero;fill:rgb(100%,100%,100%);fill-opacity:1;" d="M 138.785156 3.800781 C 135.777344 4.539062 133.5625 7.421875 133.5625 10.585938 C 133.5625 12.421875 134.148438 13.800781 135.523438 15.304688 C 137.054688 17.039062 138.199219 17.421875 142.175781 17.550781 L 145.542969 17.652344 L 145.542969 9.949219 L 139.933594 9.949219 L 139.933594 12.246094 L 143.246094 12.246094 L 143.246094 15.050781 L 141.207031 15.050781 C 138.914062 15.050781 138.074219 14.746094 137.027344 13.519531 C 135.421875 11.605469 135.550781 9.054688 137.359375 7.347656 C 139.042969 5.738281 141.054688 5.5625 143.121094 6.835938 L 143.910156 7.320312 L 144.777344 6.582031 L 145.667969 5.84375 L 144.777344 5.101562 C 143.273438 3.828125 140.851562 3.316406 138.785156 3.800781 Z M 138.785156 3.800781 "/>
<path style=" stroke:none;fill-rule:nonzero;fill:rgb(100%,100%,100%);fill-opacity:1;" d="M 28.089844 10.636719 L 28.164062 17.472656 L 30.40625 17.472656 L 30.460938 11.863281 L 32.828125 11.785156 L 35.175781 11.710938 L 35.175781 9.464844 L 32.828125 9.386719 L 30.460938 9.3125 L 30.460938 6.25 L 33.59375 6.171875 L 36.703125 6.097656 L 36.703125 3.828125 L 28.039062 3.828125 Z M 28.089844 10.636719 "/>
<path style=" stroke:none;fill-rule:nonzero;fill:rgb(100%,100%,100%);fill-opacity:1;" d="M 40.015625 8.671875 C 40.015625 12.984375 40.070312 13.648438 40.5 14.515625 C 42.539062 18.496094 48.148438 18.648438 50.136719 14.769531 C 50.699219 13.671875 50.75 13.289062 50.800781 8.722656 L 50.851562 3.828125 L 48.429688 3.828125 L 48.429688 13.265625 L 47.5625 14.234375 C 46.773438 15.078125 46.542969 15.179688 45.421875 15.179688 C 44.503906 15.179688 43.992188 15.027344 43.585938 14.667969 C 42.488281 13.699219 42.3125 12.804688 42.3125 8.164062 L 42.3125 3.828125 L 40.015625 3.828125 Z M 40.015625 8.671875 "/>
<path style=" stroke:none;fill-rule:nonzero;fill:rgb(100%,100%,100%);fill-opacity:1;" d="M 54.34375 10.636719 L 54.417969 17.472656 L 55.515625 17.550781 L 56.585938 17.628906 L 56.585938 13.546875 C 56.585938 11.277344 56.609375 9.4375 56.660156 9.4375 C 56.710938 9.4375 58.574219 11.277344 60.789062 13.519531 C 63.035156 15.765625 64.945312 17.601562 65.046875 17.601562 C 65.148438 17.601562 65.25 14.488281 65.25 10.714844 L 65.25 3.828125 L 62.828125 3.828125 L 62.90625 7.78125 C 62.957031 9.949219 62.90625 11.734375 62.777344 11.734375 C 62.675781 11.734375 60.789062 9.949219 58.625 7.78125 C 56.457031 5.613281 54.597656 3.828125 54.46875 3.828125 C 54.367188 3.828125 54.316406 6.886719 54.34375 10.636719 Z M 54.34375 10.636719 "/>
<path style=" stroke:none;fill-rule:nonzero;fill:rgb(100%,100%,100%);fill-opacity:1;" d="M 82.378906 4.898438 L 82.457031 5.996094 L 84.570312 6.070312 L 86.660156 6.148438 L 86.660156 17.601562 L 88.957031 17.601562 L 88.957031 6.121094 L 93.035156 6.121094 L 93.035156 3.828125 L 82.304688 3.828125 Z M 82.378906 4.898438 "/>
<path style=" stroke:none;fill-rule:nonzero;fill:rgb(100%,100%,100%);fill-opacity:1;" d="M 111.183594 10.636719 L 111.257812 17.472656 L 113.550781 17.472656 L 113.550781 14.59375 C 113.550781 13.035156 113.628906 11.761719 113.730469 11.785156 C 113.808594 11.835938 114.878906 13.164062 116.101562 14.746094 L 118.292969 17.601562 L 119.671875 17.601562 C 120.433594 17.601562 121.070312 17.550781 121.070312 17.472656 C 121.070312 17.421875 120.15625 16.171875 119.03125 14.695312 L 116.992188 12.039062 L 117.707031 11.863281 C 121.582031 11.019531 122.296875 6.121094 118.777344 4.335938 C 117.9375 3.902344 117.273438 3.828125 114.445312 3.828125 L 111.132812 3.828125 Z M 117.757812 6.503906 C 119.082031 7.195312 118.980469 8.929688 117.605469 9.4375 C 117.25 9.59375 116.230469 9.695312 115.3125 9.695312 L 113.679688 9.695312 L 113.679688 6.121094 L 115.335938 6.121094 C 116.355469 6.121094 117.324219 6.277344 117.757812 6.503906 Z M 117.757812 6.503906 "/>
<path style=" stroke:none;fill-rule:nonzero;fill:rgb(100%,100%,100%);fill-opacity:1;" d="M 9.355469 6.019531 C 9.253906 6.121094 9.175781 8.597656 9.175781 11.53125 C 9.175781 16.683594 9.152344 16.835938 8.667969 16.835938 C 6.550781 16.835938 3.621094 13.929688 2.957031 11.148438 C 2.804688 10.511719 2.703125 10.460938 1.53125 10.460938 C 0.816406 10.460938 0.253906 10.5625 0.253906 10.664062 C 0.253906 11.378906 1.171875 13.828125 1.835938 14.847656 C 2.855469 16.453125 4.105469 17.527344 6.117188 18.46875 C 7.671875 19.210938 7.953125 19.261719 10.578125 19.261719 C 13.050781 19.234375 13.558594 19.15625 14.835938 18.570312 C 16.414062 17.832031 18.328125 16.222656 19.117188 14.921875 C 19.574219 14.183594 19.625 13.722656 19.574219 11.300781 L 19.5 8.546875 L 15.625 8.46875 L 11.75 8.394531 L 11.675781 7.195312 L 11.597656 5.996094 L 10.578125 5.917969 C 9.992188 5.867188 9.457031 5.917969 9.355469 6.019531 Z M 17.027344 12.269531 C 17.101562 13.671875 17.078125 13.75 15.929688 14.871094 C 15.21875 15.613281 14.25 16.222656 13.382812 16.554688 C 12.589844 16.863281 11.902344 17.09375 11.851562 17.09375 C 11.777344 17.09375 11.726562 15.664062 11.726562 13.902344 L 11.726562 10.6875 L 14.351562 10.765625 L 16.949219 10.84375 Z M 17.027344 12.269531 "/>
<path style=" stroke:none;fill-rule:nonzero;fill:rgb(100%,100%,100%);fill-opacity:1;" d="M 123.621094 10.585938 L 123.621094 11.734375 L 131.011719 11.734375 L 131.011719 9.4375 L 123.621094 9.4375 Z M 123.621094 10.585938 "/>
</g>
</svg>
