<?xml version="1.0" encoding="UTF-8"?>
<svg xmlns="http://www.w3.org/2000/svg" xmlns:xlink="http://www.w3.org/1999/xlink" width="116pt" height="16pt" viewBox="0 0 116 16" version="1.1">
<g id="surface1">
<path style=" stroke:none;fill-rule:nonzero;fill:rgb(100%,100%,100%);fill-opacity:1;" d="M 2.105469 1.101562 C 1.964844 1.488281 2.085938 2.777344 2.289062 2.695312 C 2.371094 2.671875 5.125 2.652344 8.425781 2.652344 L 14.398438 2.652344 L 14.339844 1.777344 L 14.277344 0.917969 L 8.242188 0.855469 C 3.199219 0.816406 2.207031 0.855469 2.105469 1.101562 Z M 2.105469 1.101562 "/>
<path style=" stroke:none;fill-rule:nonzero;fill:rgb(100%,100%,100%);fill-opacity:1;" d="M 57.917969 3.164062 C 56.765625 3.53125 55.449219 4.652344 54.71875 5.878906 C 54.253906 6.714844 54.171875 7.039062 54.171875 8.46875 C 54.191406 9.734375 54.292969 10.285156 54.617188 10.917969 C 56.421875 14.328125 60.632812 15.121094 63.449219 12.59375 L 64.015625 12.082031 L 62.476562 10.855469 L 61.828125 11.429688 C 61.117188 12.082031 59.78125 12.367188 58.730469 12.144531 C 57.777344 11.9375 56.378906 10.488281 56.097656 9.429688 C 55.589844 7.449219 56.765625 5.429688 58.75 4.898438 C 59.761719 4.613281 60.773438 4.816406 61.707031 5.449219 L 62.433594 5.960938 L 63.0625 5.304688 L 63.691406 4.671875 L 62.980469 4.0625 C 61.6875 2.960938 59.722656 2.613281 57.917969 3.164062 Z M 57.917969 3.164062 "/>
<path style=" stroke:none;fill-rule:nonzero;fill:rgb(100%,100%,100%);fill-opacity:1;" d="M 79.285156 3.039062 C 74.402344 4.328125 73.554688 10.835938 77.949219 13.429688 C 78.757812 13.917969 79.082031 13.980469 80.601562 13.980469 C 82.097656 13.980469 82.445312 13.917969 83.234375 13.429688 C 85.136719 12.304688 86.109375 10.613281 86.109375 8.488281 C 86.089844 6.347656 84.832031 4.285156 82.988281 3.40625 C 82.140625 3 80.15625 2.796875 79.285156 3.039062 Z M 82.421875 5.304688 C 84.0625 6.183594 84.753906 8.652344 83.800781 10.304688 C 82.300781 12.898438 78.738281 12.835938 77.421875 10.203125 C 76.632812 8.652344 76.894531 7.019531 78.128906 5.855469 C 79.34375 4.695312 80.863281 4.488281 82.421875 5.304688 Z M 82.421875 5.304688 "/>
<path style=" stroke:none;fill-rule:nonzero;fill:rgb(100%,100%,100%);fill-opacity:1;" d="M 110.269531 3.039062 C 107.878906 3.632812 106.117188 5.9375 106.117188 8.46875 C 106.117188 9.9375 106.582031 11.039062 107.675781 12.246094 C 108.890625 13.632812 109.804688 13.9375 112.960938 14.039062 L 115.636719 14.121094 L 115.636719 7.960938 L 111.179688 7.960938 L 111.179688 9.796875 L 113.8125 9.796875 L 113.8125 12.039062 L 112.191406 12.039062 C 110.371094 12.039062 109.703125 11.796875 108.871094 10.816406 C 107.59375 9.285156 107.695312 7.246094 109.136719 5.878906 C 110.472656 4.59375 112.070312 4.449219 113.710938 5.46875 L 114.339844 5.855469 L 115.027344 5.265625 L 115.738281 4.671875 L 115.027344 4.082031 C 113.832031 3.0625 111.910156 2.652344 110.269531 3.039062 Z M 110.269531 3.039062 "/>
<path style=" stroke:none;fill-rule:nonzero;fill:rgb(100%,100%,100%);fill-opacity:1;" d="M 22.316406 8.511719 L 22.378906 13.980469 L 24.160156 13.980469 L 24.199219 9.488281 L 26.082031 9.429688 L 27.945312 9.367188 L 27.945312 7.570312 L 26.082031 7.511719 L 24.199219 7.449219 L 24.199219 5 L 26.691406 4.9375 L 29.160156 4.878906 L 29.160156 3.0625 L 22.277344 3.0625 Z M 22.316406 8.511719 "/>
<path style=" stroke:none;fill-rule:nonzero;fill:rgb(100%,100%,100%);fill-opacity:1;" d="M 31.792969 6.9375 C 31.792969 10.386719 31.835938 10.917969 32.179688 11.613281 C 33.800781 14.796875 38.253906 14.917969 39.835938 11.816406 C 40.28125 10.9375 40.320312 10.632812 40.359375 6.980469 L 40.402344 3.0625 L 38.476562 3.0625 L 38.476562 10.613281 L 37.789062 11.386719 C 37.160156 12.0625 36.980469 12.144531 36.089844 12.144531 C 35.359375 12.144531 34.953125 12.019531 34.628906 11.734375 C 33.757812 10.960938 33.617188 10.246094 33.617188 6.53125 L 33.617188 3.0625 L 31.792969 3.0625 Z M 31.792969 6.9375 "/>
<path style=" stroke:none;fill-rule:nonzero;fill:rgb(100%,100%,100%);fill-opacity:1;" d="M 43.175781 8.511719 L 43.238281 13.980469 L 44.109375 14.039062 L 44.957031 14.101562 L 44.957031 10.835938 C 44.957031 9.019531 44.976562 7.550781 45.019531 7.550781 C 45.058594 7.550781 46.539062 9.019531 48.300781 10.816406 C 50.082031 12.613281 51.601562 14.082031 51.679688 14.082031 C 51.761719 14.082031 51.84375 11.59375 51.84375 8.570312 L 51.84375 3.0625 L 49.917969 3.0625 L 49.980469 6.222656 C 50.019531 7.960938 49.980469 9.386719 49.878906 9.386719 C 49.796875 9.386719 48.300781 7.960938 46.578125 6.222656 C 44.855469 4.488281 43.378906 3.0625 43.277344 3.0625 C 43.195312 3.0625 43.15625 5.511719 43.175781 8.511719 Z M 43.175781 8.511719 "/>
<path style=" stroke:none;fill-rule:nonzero;fill:rgb(100%,100%,100%);fill-opacity:1;" d="M 65.453125 3.917969 L 65.511719 4.796875 L 67.195312 4.855469 L 68.855469 4.917969 L 68.855469 14.082031 L 70.675781 14.082031 L 70.675781 4.898438 L 73.917969 4.898438 L 73.917969 3.0625 L 65.390625 3.0625 Z M 65.453125 3.917969 "/>
<path style=" stroke:none;fill-rule:nonzero;fill:rgb(100%,100%,100%);fill-opacity:1;" d="M 88.335938 8.511719 L 88.398438 13.980469 L 90.21875 13.980469 L 90.21875 11.671875 C 90.21875 10.429688 90.28125 9.40625 90.363281 9.429688 C 90.421875 9.46875 91.273438 10.53125 92.246094 11.796875 L 93.988281 14.082031 L 95.082031 14.082031 C 95.6875 14.082031 96.195312 14.039062 96.195312 13.980469 C 96.195312 13.9375 95.464844 12.9375 94.574219 11.753906 L 92.953125 9.632812 L 93.519531 9.488281 C 96.597656 8.816406 97.167969 4.898438 94.371094 3.46875 C 93.703125 3.121094 93.175781 3.0625 90.929688 3.0625 L 88.296875 3.0625 Z M 93.5625 5.203125 C 94.613281 5.753906 94.535156 7.144531 93.441406 7.550781 C 93.15625 7.671875 92.347656 7.753906 91.617188 7.753906 L 90.320312 7.753906 L 90.320312 4.898438 L 91.636719 4.898438 C 92.449219 4.898438 93.21875 5.019531 93.5625 5.203125 Z M 93.5625 5.203125 "/>
<path style=" stroke:none;fill-rule:nonzero;fill:rgb(100%,100%,100%);fill-opacity:1;" d="M 7.433594 4.816406 C 7.351562 4.898438 7.289062 6.878906 7.289062 9.222656 C 7.289062 13.347656 7.269531 13.46875 6.886719 13.46875 C 5.203125 13.46875 2.875 11.144531 2.347656 8.917969 C 2.226562 8.40625 2.148438 8.367188 1.214844 8.367188 C 0.648438 8.367188 0.203125 8.449219 0.203125 8.53125 C 0.203125 9.101562 0.929688 11.0625 1.457031 11.878906 C 2.269531 13.164062 3.261719 14.019531 4.859375 14.777344 C 6.09375 15.367188 6.320312 15.40625 8.40625 15.40625 C 10.367188 15.386719 10.773438 15.328125 11.785156 14.855469 C 13.042969 14.265625 14.5625 12.980469 15.1875 11.9375 C 15.554688 11.347656 15.59375 10.980469 15.554688 9.039062 L 15.492188 6.835938 L 12.414062 6.777344 L 9.335938 6.714844 L 9.273438 5.753906 L 9.214844 4.796875 L 8.40625 4.734375 C 7.9375 4.695312 7.511719 4.734375 7.433594 4.816406 Z M 13.527344 9.816406 C 13.589844 10.9375 13.570312 11 12.65625 11.898438 C 12.089844 12.488281 11.320312 12.980469 10.632812 13.246094 C 10.003906 13.488281 9.457031 13.671875 9.417969 13.671875 C 9.355469 13.671875 9.316406 12.53125 9.316406 11.121094 L 9.316406 8.550781 L 11.402344 8.613281 L 13.46875 8.671875 Z M 13.527344 9.816406 "/>
<path style=" stroke:none;fill-rule:nonzero;fill:rgb(100%,100%,100%);fill-opacity:1;" d="M 98.21875 8.46875 L 98.21875 9.386719 L 104.09375 9.386719 L 104.09375 7.550781 L 98.21875 7.550781 Z M 98.21875 8.46875 "/>
</g>
</svg>
