<?xml version="1.0" standalone="no"?>
<!DOCTYPE svg PUBLIC "-//W3C//DTD SVG 20010904//EN"
 "http://www.w3.org/TR/2001/REC-SVG-20010904/DTD/svg10.dtd">
<svg version="1.0" xmlns="http://www.w3.org/2000/svg"
 width="573.000000pt" height="78.000000pt" viewBox="0 0 573.000000 78.000000"
 preserveAspectRatio="xMidYMid meet">

<g transform="translate(0.000000,78.000000) scale(0.100000,-0.100000)"
fill="#FFFFFF" stroke="none">
<path d="M104 726 c-7 -19 -1 -82 9 -78 4 1 140 2 303 2 l295 0 -3 43 -3 42
-298 3 c-249 2 -298 0 -303 -12z"/>
<path d="M2860 625 c-57 -18 -122 -73 -158 -133 -23 -41 -27 -57 -27 -127 1
-62 6 -89 22 -120 89 -167 297 -206 436 -82 l28 25 -38 30 -38 30 -32 -28
c-35 -32 -101 -46 -153 -35 -47 10 -116 81 -130 133 -25 97 33 196 131 222 50
14 100 4 146 -27 l36 -25 31 32 31 31 -35 30 c-64 54 -161 71 -250 44z"/>
<path d="M3915 631 c-241 -63 -283 -382 -66 -509 40 -24 56 -27 131 -27 74 0
91 3 130 27 94 55 142 138 142 242 -1 105 -63 206 -154 249 -42 20 -140 30
-183 18z m155 -111 c81 -43 115 -164 68 -245 -74 -127 -250 -124 -315 5 -39
76 -26 156 35 213 60 57 135 67 212 27z"/>
<path d="M5445 631 c-118 -29 -205 -142 -205 -266 0 -72 23 -126 77 -185 60
-68 105 -83 261 -88 l132 -4 0 151 0 151 -110 0 -110 0 0 -45 0 -45 65 0 65 0
0 -55 0 -55 -80 0 c-90 0 -123 12 -164 60 -63 75 -58 175 13 242 66 63 145 70
226 20 l31 -19 34 29 35 29 -35 29 c-59 50 -154 70 -235 51z"/>
<path d="M1102 363 l3 -268 44 0 44 0 1 110 1 110 93 3 92 3 0 44 0 44 -92 3
-93 3 0 60 0 60 123 3 122 3 0 44 0 45 -170 0 -170 0 2 -267z"/>
<path d="M1570 440 c0 -169 2 -195 19 -229 80 -156 300 -162 378 -10 22 43 24
58 26 237 l2 192 -47 0 -48 0 0 -185 0 -185 -34 -38 c-31 -33 -40 -37 -84 -37
-36 0 -56 6 -72 20 -43 38 -50 73 -50 255 l0 170 -45 0 -45 0 0 -190z"/>
<path d="M2132 363 l3 -268 43 -3 42 -3 0 160 c0 89 1 161 3 161 2 0 75 -72
162 -160 88 -88 163 -160 167 -160 4 0 8 122 8 270 l0 270 -47 0 -48 0 3 -155
c2 -85 0 -155 -5 -155 -4 0 -78 70 -163 155 -85 85 -158 155 -163 155 -4 0 -6
-120 -5 -267z"/>
<path d="M3232 588 l3 -43 83 -3 82 -3 0 -224 0 -225 45 0 45 0 0 225 0 225
80 0 80 0 0 45 0 45 -211 0 -210 0 3 -42z"/>
<path d="M4362 363 l3 -268 45 0 45 0 0 113 c0 61 3 111 7 110 3 -2 45 -54 93
-116 l86 -112 54 0 c30 0 55 2 55 5 0 2 -36 51 -80 109 l-80 104 28 7 c152 33
180 225 42 295 -33 17 -59 20 -170 20 l-130 0 2 -267z m258 162 c52 -27 48
-95 -6 -115 -14 -6 -54 -10 -90 -10 l-64 0 0 70 0 70 65 0 c40 0 78 -6 95 -15z"/>
<path d="M367 544 c-4 -4 -7 -101 -7 -216 0 -202 -1 -208 -20 -208 -83 0 -198
114 -224 223 -6 25 -10 27 -56 27 -28 0 -50 -4 -50 -8 0 -28 36 -124 62 -164
40 -63 89 -105 168 -142 61 -29 72 -31 175 -31 97 1 117 4 167 27 62 29 137
92 168 143 18 29 20 47 18 142 l-3 108 -152 3 -152 3 -3 47 -3 47 -40 3 c-23
2 -44 0 -48 -4z m301 -245 c3 -55 2 -58 -43 -102 -28 -29 -66 -53 -100 -66
-31 -12 -58 -21 -60 -21 -3 0 -5 56 -5 125 l0 126 103 -3 102 -3 3 -56z"/>
<path d="M4850 365 l0 -45 145 0 145 0 0 45 0 45 -145 0 -145 0 0 -45z"/>
</g>
</svg>
